<svg width="156" height="156" viewBox="0 0 156 156" fill="none" xmlns="http://www.w3.org/2000/svg">
<path fill-rule="evenodd" clip-rule="evenodd" d="M0 0V156H156V0H0ZM49.4214 111.285C49.5475 111.709 49.9374 112 50.3799 112H64.9409C65.3687 112 65.7491 111.728 65.8873 111.323L78.1559 75.3789C78.2062 75.2317 78.3445 75.1328 78.5 75.1328C78.6555 75.1328 78.7938 75.2317 78.8441 75.3789L91.1127 111.323C91.2509 111.728 91.6313 112 92.0591 112H106.62C107.063 112 107.452 111.709 107.579 111.285L126.618 47.2851C126.808 46.644 126.328 46 125.659 46H107.647C107.179 46 106.773 46.3249 106.671 46.7819L97.8018 86.4755C97.768 86.6268 97.6337 86.7344 97.4787 86.7344C97.3285 86.7344 97.1971 86.6333 97.1586 86.4881L86.6287 46.7439C86.5125 46.3054 86.1157 46 85.6621 46H71.3373C70.8839 46 70.4873 46.305 70.3708 46.7431L59.8416 86.3592C59.803 86.5044 59.6716 86.6055 59.5213 86.6055C59.3663 86.6055 59.2319 86.4979 59.198 86.3466L50.3293 46.7813C50.2269 46.3246 49.8215 46 49.3535 46H31.3408C30.6719 46 30.1916 46.644 30.3823 47.2851L49.4214 111.285Z" fill="url(#paint0_linear_15_41)"/>
<defs>
<linearGradient id="paint0_linear_15_41" x1="174" y1="77.9999" x2="-13.3333" y2="77.9999" gradientUnits="userSpaceOnUse">
<stop stop-color="#1D83F8"/>
<stop offset="1" stop-color="#37D2A4"/>
</linearGradient>
</defs>
</svg>
